<svg id="Layer_1" data-name="Layer 1" xmlns="http://www.w3.org/2000/svg" viewBox="0 0 512 512"><defs><style>.cls-1{fill:#ff7e8a;}</style></defs><path class="cls-1" d="M265.12,60.12a12,12,0,0,0-16.92-1.31,11.58,11.58,0,0,0-1.31,1.31C215.23,97.15,112,225.17,112,320c0,88.37,55.64,144,144,144s144-55.63,144-144C400,225.17,296.77,97.15,265.12,60.12ZM272,412a12,12,0,0,1-11.34-16,11.89,11.89,0,0,1,11.41-8A60.06,60.06,0,0,0,332,328.07a12,12,0,0,1,23.31-4.1,12.07,12.07,0,0,1,.69,4A84.09,84.09,0,0,1,272,412Z"/></svg>